<?xml version="1.0" encoding="UTF-8" standalone="no"?>
<!DOCTYPE svg PUBLIC "-//W3C//DTD SVG 1.1//EN" "http://www.w3.org/Graphics/SVG/1.1/DTD/svg11.dtd">
<svg width="100%" height="100%" viewBox="0 0 612 200" version="1.1" xmlns="http://www.w3.org/2000/svg" xmlns:xlink="http://www.w3.org/1999/xlink" xml:space="preserve" xmlns:serif="http://www.serif.com/" style="fill-rule:evenodd;clip-rule:evenodd;stroke-linejoin:round;stroke-miterlimit:2;">
    <g transform="matrix(1,0,0,1,-206.10023,-397.469925)">
        <g id="Background">
            <g id="logo-wektor" serif:id="logo wektor">
                <path d="M724.418,461.414C745.039,442.29 772.818,443.913 788.37,451.776C794.353,454.802 794.225,455.048 796.524,456.465C799.875,458.531 806.402,464.737 809.002,468.834C823.304,491.364 816.15,510.052 815.757,511.567C811.207,529.139 798.428,540.262 787.591,544.72C758.912,556.519 732.973,544.136 722.306,531.665C709.215,516.36 709.435,499.099 709.366,497.503C709.016,489.425 712.328,478.273 717.219,470.337C719.864,466.045 720.24,465.571 724.418,461.414ZM795.93,508.62C796.869,505.103 796.924,505.119 797.162,501.474C797.957,489.282 794.578,483.19 792.373,479.577C781.226,461.317 762.568,463.021 760.472,463.227C745.512,464.694 737.93,474.377 737.672,474.66C731.77,481.1 729.191,491.292 729.926,500.473C731.087,514.977 736.526,521.455 744.423,526.616C750.341,530.483 754.665,532.254 760.498,532.55C772.055,533.135 779.386,528.575 780.69,527.839C789.263,522.999 793.093,517.766 795.93,508.62Z" style="fill:rgb(78,78,74);"/>
                <path d="M575.011,452.711C575.594,454.182 575.579,454.163 576.263,455.59C577.748,458.687 575.645,458.025 575.458,457.956C575.043,457.804 575.171,457.594 570.765,455.054C570.248,454.756 566.782,452.288 562.386,449.686C561.833,449.358 555.768,445.768 555.442,445.65C554.094,445.161 553.6,446.362 553.536,446.517C553.208,447.314 553.293,447.343 549.691,456.579C548.044,460.802 541.425,475.386 539.162,479.313C529.306,496.422 524.144,504.298 514.986,514.912C513.359,516.798 510.451,520.956 497.026,534.025C494.235,536.742 494.374,536.871 491.416,539.401C480.424,548.807 463.926,564.63 424.5,581.499C401.218,591.46 368.011,595.686 359.518,595.971C353.04,596.188 353.042,595.902 278.499,596.092C246.982,596.172 246.983,595.426 215.495,596.745C214.946,596.768 209.09,597.014 208.631,596.385C207.87,595.341 208.849,595.531 210.066,595.107C210.257,595.041 210.376,594.815 210.574,594.779C212.586,594.409 223.524,594.443 240.496,592.462C247.296,591.669 278.312,589.385 287.477,589.045C290.968,588.916 302.166,587.63 333.5,587.505C334.642,587.5 342.231,588.164 363.563,584.88C387.887,581.136 403.26,574.201 413.591,569.707C428.927,563.036 433.614,558.936 442.535,553.552C442.552,553.542 451.538,547.542 455.374,544.345C456.845,543.119 467.355,533.784 467.573,533.578C475.748,525.865 492.466,510.643 509.991,479.781C512.673,475.057 512.915,475.198 519.233,461.381C522.05,455.22 526.115,441.531 526.129,441.44C526.388,439.773 524.683,439.743 524.494,439.74C521.669,439.689 515.481,440.571 508.515,440.839C504.493,440.994 502.587,441.872 502.612,440.493C502.625,439.775 502.751,439.811 503.326,439.379C504.69,438.356 507.221,436.459 519.562,425.572C528.861,417.369 528.895,417.439 529.7,416.724C536.595,410.6 536.825,410.879 543.61,404.624C543.995,404.268 550.228,399.117 551.3,398.212C554.029,395.907 554.214,399.045 557.229,406.609C558.68,410.249 562.858,421.947 568.937,437.334C573.064,447.777 572.758,447.894 575.011,452.711Z" style="fill:rgb(245,122,35);"/>
                <path d="M643.5,448.068C660.043,448.077 668.549,447.513 680.247,453.932C682.054,454.924 684.461,456.83 684.809,457.106C699.348,468.62 697.627,492.805 690.66,502.611C689.609,504.09 686.964,508.335 680.332,512.199C678.323,513.37 676.87,513.404 676.142,514.236C674.872,515.688 676.528,515.669 682.88,525.239C683.493,526.163 687.406,531.731 687.802,532.294C696.929,545.278 696.92,545.266 696.929,545.278C698.047,546.637 698.294,547.528 696.535,547.647C695.176,547.739 695.195,547.483 679.502,547.653C675.174,547.7 675.725,545.789 669.221,536.692C657.649,520.508 658.287,520.076 657.17,518.757C656.046,517.431 655.707,517.907 639.498,517.814C634.469,517.785 633.182,517.766 632.501,518.501C631.904,519.147 632.226,519.295 631.99,530.497C631.942,532.784 632.175,545.009 632.077,545.455C631.68,547.254 631.338,547.255 629.49,547.345C626.372,547.496 613.713,547.438 613.523,547.4C611.877,547.076 612.23,546.174 612.221,535.499C612.187,493.987 612.319,494.003 612.142,452.502C612.129,449.468 611.435,448.215 614.476,448.111C616.007,448.059 641.178,448.067 643.5,448.068ZM631.904,467.497C631.921,470.141 632.117,499.787 632.269,500.547C632.635,502.377 633.395,502.144 644.5,502.144C659.747,502.145 661.723,502.197 668.499,498.498C679.674,492.397 678.608,472.172 667.281,466.938C660.46,463.787 657.261,464.094 636.5,464.125C636.254,464.125 633.639,464.129 633.431,464.174C631.541,464.586 631.918,467.32 631.904,467.497Z" style="fill:rgb(79,78,74);"/>
                <path d="M313.068,544.491C313.133,531.521 312.884,474.867 312.928,459.501C312.949,452.131 312.905,452.142 312.919,451.502C313.002,447.486 314.492,448.027 318.503,448.038C322.263,448.05 322.26,447.988 365.5,448.015C384.847,448.027 384.956,448.068 385.45,448.55C386.033,449.118 386.123,452.192 386.133,452.514C386.452,463.413 386.089,463.616 385.26,464.023C384.643,464.325 384.611,464.216 354.5,464.203C336.056,464.196 336.073,464.002 334.473,464.091C332.883,464.179 332.719,465.344 332.694,465.525C332.662,465.757 332.653,477.361 332.667,479.499C332.723,488.014 332.639,488.148 333.261,488.742C333.989,489.437 335.708,489.195 337.499,489.192C377.424,489.118 377.487,488.806 378.626,489.264C379.766,489.722 379.735,490.749 379.718,501.502C379.716,502.613 379.941,504.518 378.411,505.13C377.573,505.465 340.774,505.281 337.501,505.265C334.178,505.248 332.618,504.186 332.605,507.503C332.596,509.919 332.404,523.548 332.575,529.497C332.672,532.852 334.163,531.866 337.502,531.842C341.342,531.815 341.34,532.058 385.505,531.857C387.63,531.848 388.181,532.63 388.07,535.496C387.83,541.692 388.091,541.68 387.938,545.539C387.88,547.017 387.982,547.369 386.533,547.662C386.189,547.732 319.952,547.965 315.491,547.824C312.346,547.725 313.118,545.444 313.068,544.491Z" style="fill:rgb(78,78,73);"/>
                <path d="M213.266,471.364C214.805,468.968 214.719,468.94 214.857,468.736C223.494,455.986 235.817,451.491 237.599,450.729C240.242,449.6 254.197,443.637 273.416,447.875C276.93,448.65 286.795,451.831 294.846,459.122C298.047,462.021 298.552,462.838 296.655,464.66C289.882,471.171 288.184,475.164 286.487,475.215C285.259,475.253 284.293,473.437 282.414,471.587C272.115,461.444 256.014,461.375 244.594,466.703C237.31,470.102 231.828,477.048 229.965,480.744C221.894,496.753 227.057,516.277 238.844,525.07C249.783,533.229 258.674,532.784 260.509,532.692C272.429,532.095 278.471,527.338 280.598,525.624C285.335,521.808 284.937,520.515 286.623,521.078C287.303,521.305 290.811,524.481 294.925,529.136C297.786,532.375 297.911,533.066 295.966,534.983C289.111,541.74 287.378,542.335 281.698,544.949C267.684,551.4 251.74,550.176 243.542,547.372C237.442,545.286 227.257,542.563 216.581,529.435C209.627,520.885 206.649,507.318 206.22,500.517C205.714,492.502 206.966,488.126 207.111,487.42C209.051,477.932 213.077,471.706 213.266,471.364Z" style="fill:rgb(76,76,72);"/>
                <path d="M597.964,544.287C599.098,546.344 599.868,547.475 597.528,547.659C596.418,547.746 584.625,547.705 583.504,547.701C579.586,547.688 578.705,548.241 577.313,544.578C575.506,539.823 570.074,526.386 568.978,525.087C568.077,524.018 567.852,524.166 558.502,524.093C555.942,524.073 555.967,524.102 526.5,524.066C523.292,524.063 521.808,523.45 520.476,526.489C515.761,537.247 514.298,546.799 511.542,547.644C510.117,548.081 499.158,547.54 495.515,548.046C495.353,548.068 493.921,548.267 493.558,547.472C493.428,547.187 493.424,546.819 493.55,546.532C493.596,546.428 493.67,546.539 494.697,545.697C494.802,545.611 502.079,539.303 502.72,538.747C504.22,537.446 509.191,533.138 519.803,520.748C520.21,520.273 520.169,520.248 524.626,514.596C527.807,510.563 528.518,508.627 530.497,508.638C532.736,508.65 532.726,508.801 540.5,508.785C560.105,508.745 560.158,508.782 560.508,508.513C561.881,507.461 561.066,507.14 560.46,505.514C559.937,504.111 554.15,489.44 549.885,480.319C548.374,477.087 548.64,476.842 550.105,474.276C550.737,473.169 555.733,462.855 556.583,459.529C556.882,458.362 556.45,458.099 557.463,457.437C558.279,456.903 558.358,457.296 558.861,458.122C559.024,458.39 559.009,458.392 565.254,471.616C570.631,483.002 576.7,497.872 584.265,513.612C587,519.303 590.532,528.502 597.242,542.626C597.304,542.757 597.295,542.749 597.964,544.287Z" style="fill:rgb(243,120,35);"/>
                <path d="M427.246,497.499C427.238,500.062 427.151,528.618 427.336,529.533C427.729,531.488 429.02,530.923 435.505,530.882C446.004,530.816 445.987,530.909 456.486,530.652C457.743,530.621 458.288,530.255 458.33,531.523C458.364,532.54 457.291,533.036 456.593,533.602C444.308,543.562 441.932,545.639 440.69,546.724C438.775,548.398 438.444,547.668 427.5,547.611C408.5,547.512 408.009,547.712 407.557,546.474C407.11,545.253 407.567,545.207 407.385,529.501C407.201,513.547 407.564,478.748 407.539,453.5C407.537,451.527 407.118,448.647 409.451,448.225C410.38,448.057 425.548,448.103 425.565,448.106C427.286,448.383 427.229,448.785 427.271,450.508C427.352,453.869 427.255,493.74 427.246,497.499Z" style="fill:rgb(78,77,72);"/>
            </g>
        </g>
    </g>
</svg>
